<?xml version="1.0" encoding="UTF-8" standalone="no"?>
<svg width="36px" height="36px" viewBox="0 0 36 36" version="1.1" xmlns="http://www.w3.org/2000/svg" xmlns:xlink="http://www.w3.org/1999/xlink">
    <!-- Generator: Sketch 3.8.3 (29802) - http://www.bohemiancoding.com/sketch -->
    <title>Group 4</title>
    <desc>Created with Sketch.</desc>
    <defs></defs>
    <g id="Page-1" stroke="none" stroke-width="1" fill="none" fill-rule="evenodd">
        <g id="Screen-2" transform="translate(-802.000000, -656.000000)">
            <g id="Group-4" transform="translate(802.000000, 656.000000)">
                <circle id="Oval-3" fill="#FFFFFF" cx="18" cy="18" r="18"></circle>
                <path d="M18,3 C9.75,3 3,9.75 3,18 C3,26.25 9.75,33 18,33 C26.25,33 33,26.25 33,18 C33,9.75 26.25,3 18,3 L18,3 Z M26.4,12.9 L15.15,24.15 C15,24.3 14.775,24.375 14.625,24.375 C14.475,24.375 14.25,24.3 14.1,24.15 L9.225,19.275 C8.925,18.975 8.925,18.525 9.225,18.225 C9.525,17.925 9.975,17.925 10.275,18.225 L14.625,22.575 L25.35,11.85 C25.65,11.55 26.1,11.55 26.4,11.85 C26.7,12.15 26.7,12.6 26.4,12.9 L26.4,12.9 Z" id="Shape" fill="#4ED1AA"></path>
            </g>
        </g>
    </g>
</svg>
